<svg width="50" height="50" viewBox="0 0 50 50" fill="none" xmlns="http://www.w3.org/2000/svg">
<g clip-path="url(#clip0_423_97)">
<path d="M25 50C38.8071 50 50 38.8071 50 25C50 11.1929 38.8071 0 25 0C11.1929 0 0 11.1929 0 25C0 38.8071 11.1929 50 25 50Z" fill="#F0F0F0"/>
<path d="M49.7884 21.7392H28.261H28.2609V0.211621C27.1935 0.0726563 26.1052 0 25 0C23.8948 0 22.8065 0.0726563 21.7392 0.211621V21.7392H0.211621C0.0726563 22.8065 0 23.8948 0 25C0 26.1052 0.0726563 27.1935 0.211621 28.2608H21.739H21.7391V49.7884C22.8065 49.9273 23.8948 50 25 50C26.1052 50 27.1935 49.9274 28.2608 49.7884V28.2611V28.2609H49.7884C49.9273 27.1935 50 26.1052 50 25C50 23.8948 49.9273 22.8065 49.7884 21.7392V21.7392Z" fill="#D80027"/>
<path d="M32.0653 26.0869L33.6957 27.1739V22.8261L32.0653 23.9131H26.087V17.9348L27.174 16.3044H22.8261L23.9131 17.9348V23.9131H17.9348L16.3044 22.8261V27.1739L17.9348 26.0869H23.9131V32.0652L22.8261 33.6956H27.174L26.087 32.0652V26.0869H32.0653Z" fill="#FFDA44"/>
</g>
<defs>
<clipPath id="clip0_423_97">
<rect width="50" height="50" fill="white"/>
</clipPath>
</defs>
</svg>
