
<svg width="199" height="101" viewBox="0 0 199 101" fill="none" xmlns="http://www.w3.org/2000/svg">
<path d="M45.2852 22.4414L44.6016 23.2812L35.1289 16.2305L44.6016 8.59375L45.2852 9.16016L40.0312 16.2305L45.2852 22.4414ZM60.0117 22.4414L59.3281 23.2812L49.8555 16.2305L59.3281 8.59375L60.0117 9.16016L54.7578 16.2305L60.0117 22.4414ZM84.25 1.64062C83.1432 3.29427 82.0951 4.85677 81.1055 6.32812C80.1289 7.78646 79.1719 9.20573 78.2344 10.5859C77.3099 11.9661 76.3919 13.3268 75.4805 14.668C74.569 16.0091 73.6315 17.3698 72.668 18.75C71.7174 20.1172 70.7279 21.5365 69.6992 23.0078C68.6836 24.4661 67.5898 26.0091 66.418 27.6367C66.8346 27.3372 67.2318 27.0573 67.6094 26.7969C68 26.5365 68.3906 26.3086 68.7812 26.1133C69.1849 25.918 69.6081 25.7682 70.0508 25.6641C70.4935 25.5469 70.9883 25.4883 71.5352 25.4883C72.1602 25.4883 72.7852 25.5469 73.4102 25.6641C74.0482 25.7682 74.6797 25.8854 75.3047 26.0156C75.9297 26.1328 76.5547 26.25 77.1797 26.3672C77.8177 26.4714 78.4557 26.5234 79.0938 26.5234C79.5365 26.5234 79.9661 26.4518 80.3828 26.3086C80.8125 26.1654 81.2161 25.9766 81.5938 25.7422C81.9844 25.5078 82.3424 25.2409 82.668 24.9414C82.9935 24.6289 83.293 24.3034 83.5664 23.9648L84.25 24.4727L80.3828 30.8008C78.625 30.5013 76.8867 30.2148 75.168 29.9414C73.4622 29.6549 71.7435 29.3815 70.0117 29.1211C69.6732 29.056 69.3411 29.0104 69.0156 28.9844C68.6901 28.9453 68.3581 28.9258 68.0195 28.9258C67.2904 28.9258 66.5938 29.0234 65.9297 29.2188C65.2786 29.401 64.6536 29.7005 64.0547 30.1172L63.4492 29.4727C66.2357 25.5143 68.944 21.6146 71.5742 17.7734C74.2044 13.9193 76.8411 10.0195 79.4844 6.07422H75.2852C74.7904 6.07422 74.1589 6.07422 73.3906 6.07422C72.6354 6.0612 71.8477 6.06771 71.0273 6.09375C70.2201 6.11979 69.4453 6.17839 68.7031 6.26953C67.9609 6.34766 67.3555 6.48438 66.8867 6.67969C66.6393 6.78385 66.3854 6.91406 66.125 7.07031C65.8646 7.22656 65.6172 7.40234 65.3828 7.59766C65.1484 7.79297 64.9271 8.0013 64.7188 8.22266C64.5104 8.43099 64.3281 8.63932 64.1719 8.84766L63.4492 8.32031L67.375 1.99219H77.7266C78.2344 1.99219 78.7422 1.9987 79.25 2.01172C79.7708 2.02474 80.2852 2.00521 80.793 1.95312C81.3008 1.90104 81.7956 1.80339 82.2773 1.66016C82.7591 1.51693 83.2148 1.29557 83.6445 0.996094L84.25 1.64062ZM100.109 26.1914C99.6536 26.7773 99.1523 27.3242 98.6055 27.832C98.0716 28.3398 97.4857 28.7826 96.8477 29.1602C96.2227 29.5378 95.5586 29.8372 94.8555 30.0586C94.1523 30.2799 93.4232 30.3906 92.668 30.3906C91.7044 30.3906 90.819 30.2214 90.0117 29.8828C89.2044 29.5312 88.5078 29.056 87.9219 28.457C87.3359 27.8451 86.8802 27.1289 86.5547 26.3086C86.2292 25.4753 86.0664 24.5833 86.0664 23.6328C86.0664 22.8516 86.1771 22.0833 86.3984 21.3281C86.6198 20.5729 86.9323 19.8633 87.3359 19.1992C87.7396 18.5352 88.2148 17.9232 88.7617 17.3633C89.3216 16.7904 89.9336 16.3021 90.5977 15.8984C91.2617 15.4948 91.9648 15.1823 92.707 14.9609C93.4492 14.7266 94.2109 14.6094 94.9922 14.6094C95.5391 14.6094 96.0534 14.6745 96.5352 14.8047C97.0299 14.9349 97.4661 15.1432 97.8438 15.4297C98.2214 15.7031 98.5208 16.0612 98.7422 16.5039C98.9635 16.9336 99.0742 17.4479 99.0742 18.0469C99.0742 18.5417 98.9245 19.0625 98.625 19.6094C98.3385 20.1562 97.9544 20.7031 97.4727 21.25C97.0039 21.7969 96.4701 22.3372 95.8711 22.8711C95.2721 23.3919 94.6602 23.8802 94.0352 24.3359C93.4232 24.7786 92.8307 25.1693 92.2578 25.5078C91.6849 25.8464 91.1836 26.1068 90.7539 26.2891C91.2357 26.888 91.7956 27.3763 92.4336 27.7539C93.0716 28.1315 93.7487 28.3203 94.4648 28.3203C94.9206 28.3203 95.3828 28.2357 95.8516 28.0664C96.3203 27.8841 96.7695 27.6562 97.1992 27.3828C97.6419 27.1094 98.0586 26.8099 98.4492 26.4844C98.8529 26.1589 99.2109 25.8529 99.5234 25.5664L100.109 26.1914ZM95.4023 18.7695C95.4023 18.4701 95.3503 18.1836 95.2461 17.9102C95.1549 17.6367 95.0182 17.4023 94.8359 17.207C94.6536 16.9987 94.4323 16.8359 94.1719 16.7188C93.9245 16.5885 93.638 16.5234 93.3125 16.5234C92.7266 16.5234 92.1862 16.7318 91.6914 17.1484C91.1966 17.5521 90.7669 18.0534 90.4023 18.6523C90.0508 19.2513 89.7708 19.8893 89.5625 20.5664C89.3672 21.2305 89.2695 21.8164 89.2695 22.3242C89.2695 22.819 89.3477 23.3268 89.5039 23.8477C89.6602 24.3685 89.875 24.8698 90.1484 25.3516C90.6693 25.0651 91.2357 24.668 91.8477 24.1602C92.4596 23.6523 93.026 23.099 93.5469 22.5C94.0807 21.888 94.5234 21.2565 94.875 20.6055C95.2266 19.9544 95.4023 19.3424 95.4023 18.7695ZM93 13.418L92.5117 12.7344L97.0625 7.28516L99.3477 9.84375L93 13.418ZM109.66 27.7148C109.504 28.0534 109.302 28.3724 109.055 28.6719C108.82 28.9714 108.553 29.2383 108.254 29.4727C107.954 29.707 107.622 29.8893 107.258 30.0195C106.906 30.1628 106.542 30.2344 106.164 30.2344C105.148 30.2344 104.406 29.9544 103.938 29.3945C103.482 28.8216 103.254 28.0469 103.254 27.0703V3.24219L106.848 1.99219V27.168C106.848 27.4284 106.906 27.6693 107.023 27.8906C107.141 28.099 107.349 28.2031 107.648 28.2031C107.948 28.2031 108.228 28.0859 108.488 27.8516C108.762 27.6042 108.977 27.3633 109.133 27.1289L109.66 27.7148ZM116.066 4.51172L115.031 11.6406L113.117 12.2461L111.945 5.91797L116.066 4.51172ZM118.762 27.7148C118.462 28.3529 118.111 28.8411 117.707 29.1797C117.316 29.5182 116.939 29.7656 116.574 29.9219C116.145 30.1042 115.708 30.2083 115.266 30.2344C114.693 30.2344 114.217 30.1432 113.84 29.9609C113.462 29.7786 113.163 29.5378 112.941 29.2383C112.72 28.9388 112.564 28.6003 112.473 28.2227C112.395 27.8451 112.355 27.4609 112.355 27.0703V16.1133L115.949 14.8828V27.168C115.949 27.4805 116.021 27.7279 116.164 27.9102C116.307 28.0924 116.49 28.1901 116.711 28.2031C116.945 28.2031 117.193 28.1185 117.453 27.9492C117.727 27.7799 117.987 27.5065 118.234 27.1289L118.762 27.7148ZM127.141 30.4492C126.177 30.4492 125.272 30.2799 124.426 29.9414C123.592 29.5898 122.863 29.1081 122.238 28.4961C121.626 27.8841 121.138 27.168 120.773 26.3477C120.422 25.5143 120.246 24.6094 120.246 23.6328C120.246 22.526 120.428 21.4909 120.793 20.5273C121.158 19.5508 121.659 18.6719 122.297 17.8906C122.948 17.1094 123.71 16.4323 124.582 15.8594C125.467 15.2865 126.424 14.8372 127.453 14.5117L128.02 15.1953C127.434 15.625 126.887 16.1198 126.379 16.6797C125.871 17.2266 125.428 17.8255 125.051 18.4766C124.673 19.1146 124.374 19.7917 124.152 20.5078C123.931 21.2109 123.82 21.9336 123.82 22.6758C123.82 23.3008 123.911 23.9583 124.094 24.6484C124.276 25.3385 124.549 25.9701 124.914 26.543C125.279 27.1159 125.734 27.5911 126.281 27.9688C126.841 28.3333 127.486 28.5156 128.215 28.5156C128.866 28.5156 129.426 28.3984 129.895 28.1641C130.376 27.9297 130.773 27.6107 131.086 27.207C131.398 26.8034 131.633 26.3346 131.789 25.8008C131.945 25.2539 132.023 24.681 132.023 24.082C132.023 23.3789 131.887 22.6628 131.613 21.9336C131.34 21.1914 130.962 20.5078 130.48 19.8828C130.012 19.2578 129.458 18.737 128.82 18.3203C128.182 17.9036 127.499 17.6628 126.77 17.5977C127.225 17.0768 127.727 16.5951 128.273 16.1523C128.82 15.7096 129.374 15.2865 129.934 14.8828C130.689 15.1302 131.353 15.4948 131.926 15.9766C132.512 16.4583 133 17.0117 133.391 17.6367C133.794 18.2617 134.1 18.9453 134.309 19.6875C134.517 20.4167 134.621 21.1589 134.621 21.9141C134.621 22.9427 134.439 23.9648 134.074 24.9805C133.723 25.9961 133.215 26.9141 132.551 27.7344C131.9 28.5417 131.112 29.1992 130.188 29.707C129.276 30.2018 128.26 30.4492 127.141 30.4492ZM148.41 16.2305L138.938 23.2812L138.254 22.4414L143.488 16.2305L138.254 9.16016L138.938 8.59375L148.41 16.2305ZM163.137 16.2305L153.664 23.2812L152.98 22.4414L158.215 16.2305L152.98 9.16016L153.664 8.59375L163.137 16.2305Z" fill="#EAEAEA"/>
<path fill-rule="evenodd" clip-rule="evenodd" d="M56.5126 47.2816V45.2032L50.767 47.3387H50.7561V49.4716H50.767L56.5126 51.6072V49.526L53.5664 48.3997L56.5126 47.2789V47.2816Z" fill="#F7DD43"/>
<path fill-rule="evenodd" clip-rule="evenodd" d="M89.7922 51.5037V49.4253L92.7358 48.3072L89.7922 47.189V45.1106L95.5297 47.2462H95.5433V49.3817H95.5297L89.7922 51.5064V51.5037ZM87.3275 42.1698L83.9541 53H85.9564L89.3298 42.1698H87.3275Z" fill="#F7DD43"/>
<path fill-rule="evenodd" clip-rule="evenodd" d="M64.9543 44.9175C65.5256 45.5432 65.8249 46.3702 65.7895 47.2163V51.8302H63.7872V47.6407C63.8117 47.1727 63.6621 46.7157 63.3683 46.3512C63.0908 46.0274 62.68 45.8479 62.2529 45.8669C60.9987 45.8669 60.3703 46.7375 60.3703 48.4758V51.8302H58.368V44.2564H60.3703V44.9392C61.0069 44.3217 61.8693 43.9925 62.7562 44.0306C63.5832 43.9952 64.383 44.319 64.9543 44.9175Z" fill="#F7DD43"/>
<path fill-rule="evenodd" clip-rule="evenodd" d="M68.3413 41V51.8302H70.3436V41H68.3413Z" fill="#F7DD43"/>
<path fill-rule="evenodd" clip-rule="evenodd" d="M81.6661 51.8302H79.9958L78.358 47.3686L76.704 51.8302H75.0336L72.2261 44.2428H74.3671L75.945 48.7806L77.5718 44.2428H79.1361L80.7629 48.7942L82.3408 44.2428H84.4818L81.6716 51.8302H81.6661Z" fill="#F7DD43"/>
<path d="M105.08 55.9981C103.153 55.9981 101.129 55.6331 99.5433 54.754V39.2441C101.105 38.3899 103.128 38 105.08 38C107.031 38 109.007 38.365 110.566 39.2441V45.195H106.639V41.1456C106.177 40.9507 105.615 40.878 105.055 40.878C104.495 40.878 103.981 40.9507 103.493 41.1456V52.8525C103.956 53.0475 104.493 53.1201 105.055 53.1201C105.617 53.1201 106.152 53.0475 106.639 52.8525V48.805H110.566V54.7559C109.03 55.6101 107.006 55.9752 105.08 56V55.9981Z" fill="#F7DD43"/>
<path d="M117.931 55.9981C115.858 55.9981 113.859 55.5585 112.273 54.6565V39.3167C113.834 38.4395 115.835 38 117.931 38C120.028 38 121.979 38.4147 123.54 39.3167V54.6565C122.004 55.5585 119.98 55.9732 117.931 55.9981ZM119.615 41.1952C119.152 41.0003 118.591 40.9029 117.908 40.9029C117.226 40.9029 116.689 41.0003 116.225 41.1952V52.7799C116.687 52.9997 117.249 53.0971 117.908 53.0971C118.568 53.0971 119.128 52.9997 119.615 52.7799V41.1952Z" fill="#F7DD43"/>
<path d="M130.393 49.4127H129.344V55.7783H125.369V38.2198H130.393C132.784 38.2198 134.588 38.7071 136.002 39.7066V47.9259C134.613 48.9024 132.782 49.4127 130.393 49.4127ZM132.052 41.243C131.687 40.9755 131.198 40.8532 130.368 40.8532H129.294V46.7793H130.368C131.173 46.7793 131.66 46.657 132.052 46.4143V41.243Z" fill="#F7DD43"/>
<path d="M144.317 55.7783V49.4127H141.391V55.7783H137.441V39.2919C138.88 38.4376 140.904 38 142.855 38C144.806 38 146.805 38.4395 148.244 39.2919V55.7783H144.317ZM144.317 41.0481C143.902 40.8532 143.39 40.7557 142.853 40.7557C142.316 40.7557 141.804 40.8532 141.389 41.0481V46.6321H144.315V41.0481H144.317Z" fill="#F7DD43"/>
<path d="M22.7129 85.9248H27.0928C27.0049 87.3604 26.6094 88.6348 25.9062 89.748C25.2129 90.8613 24.2412 91.7305 22.9912 92.3555C21.751 92.9805 20.2568 93.293 18.5088 93.293C17.1416 93.293 15.916 93.0586 14.832 92.5898C13.748 92.1113 12.8203 91.4277 12.0488 90.5391C11.2871 89.6504 10.7061 88.5762 10.3057 87.3164C9.90527 86.0566 9.70508 84.6455 9.70508 83.083V81.6035C9.70508 80.041 9.91016 78.6299 10.3203 77.3701C10.7402 76.1006 11.3359 75.0215 12.1074 74.1328C12.8887 73.2441 13.8213 72.5605 14.9053 72.082C15.9893 71.6035 17.2002 71.3643 18.5381 71.3643C20.3154 71.3643 21.8145 71.6865 23.0352 72.3311C24.2656 72.9756 25.2178 73.8643 25.8916 74.9971C26.5752 76.1299 26.9854 77.4189 27.1221 78.8643H22.7275C22.6787 78.0049 22.5078 77.2773 22.2148 76.6816C21.9219 76.0762 21.4775 75.6221 20.8818 75.3193C20.2959 75.0068 19.5146 74.8506 18.5381 74.8506C17.8057 74.8506 17.166 74.9873 16.6191 75.2607C16.0723 75.5342 15.6133 75.9492 15.2422 76.5059C14.8711 77.0625 14.5928 77.7656 14.4072 78.6152C14.2314 79.4551 14.1436 80.4414 14.1436 81.5742V83.083C14.1436 84.1865 14.2266 85.1582 14.3926 85.998C14.5586 86.8281 14.8125 87.5312 15.1543 88.1074C15.5059 88.6738 15.9551 89.1035 16.502 89.3965C17.0586 89.6797 17.7275 89.8213 18.5088 89.8213C19.4268 89.8213 20.1836 89.6748 20.7793 89.3818C21.375 89.0889 21.8291 88.6543 22.1416 88.0781C22.4639 87.502 22.6543 86.7842 22.7129 85.9248ZM38.6504 75.3193L32.8496 93H28.1768L36.1016 71.6719H39.0752L38.6504 75.3193ZM43.4697 93L37.6543 75.3193L37.1855 71.6719H40.1885L48.1572 93H43.4697ZM43.2061 85.0605V88.5029H31.9414V85.0605H43.2061ZM63.8457 89.5723V93H53.1084V89.5723H63.8457ZM54.5293 71.6719V93H50.1348V71.6719H54.5293ZM80.6768 89.5723V93H69.3242V89.5723H80.6768ZM70.7598 71.6719V93H66.3652V71.6719H70.7598ZM79.1973 80.3584V83.6982H69.3242V80.3584H79.1973ZM80.6621 71.6719V75.1143H69.3242V71.6719H80.6621ZM100.599 71.6719V93H96.2041L87.6348 78.7031V93H83.2402V71.6719H87.6348L96.2188 85.9834V71.6719H100.599ZM110.97 93H106.326L106.355 89.5723H110.97C112.122 89.5723 113.094 89.3135 113.885 88.7959C114.676 88.2686 115.271 87.502 115.672 86.4961C116.082 85.4902 116.287 84.2744 116.287 82.8486V81.8086C116.287 80.7148 116.17 79.7529 115.936 78.9229C115.711 78.0928 115.374 77.3945 114.925 76.8281C114.476 76.2617 113.924 75.8369 113.27 75.5537C112.615 75.2607 111.863 75.1143 111.014 75.1143H106.238V71.6719H111.014C112.439 71.6719 113.743 71.916 114.925 72.4043C116.116 72.8828 117.146 73.5713 118.016 74.4697C118.885 75.3682 119.554 76.4424 120.022 77.6924C120.501 78.9326 120.74 80.3145 120.74 81.8379V82.8486C120.74 84.3623 120.501 85.7441 120.022 86.9941C119.554 88.2441 118.885 89.3184 118.016 90.2168C117.156 91.1055 116.126 91.7939 114.925 92.2822C113.733 92.7607 112.415 93 110.97 93ZM108.816 71.6719V93H104.422V71.6719H108.816ZM132.283 75.3193L126.482 93H121.81L129.734 71.6719H132.708L132.283 75.3193ZM137.103 93L131.287 75.3193L130.818 71.6719H133.821L141.79 93H137.103ZM136.839 85.0605V88.5029H125.574V85.0605H136.839ZM129.808 70.4707L132.679 65.959H137.264L133.235 70.4707H129.808ZM143.768 71.6719H151.722C153.353 71.6719 154.754 71.916 155.926 72.4043C157.107 72.8926 158.016 73.6152 158.65 74.5723C159.285 75.5293 159.603 76.7061 159.603 78.1025C159.603 79.2451 159.407 80.2266 159.017 81.0469C158.636 81.8574 158.094 82.5361 157.391 83.083C156.697 83.6201 155.882 84.0498 154.944 84.3721L153.553 85.1045H146.639L146.609 81.6768H151.751C152.522 81.6768 153.162 81.54 153.67 81.2666C154.178 80.9932 154.559 80.6123 154.812 80.124C155.076 79.6357 155.208 79.0693 155.208 78.4248C155.208 77.7412 155.081 77.1504 154.827 76.6523C154.573 76.1543 154.188 75.7734 153.67 75.5098C153.152 75.2461 152.503 75.1143 151.722 75.1143H148.162V93H143.768V71.6719ZM155.691 93L150.828 83.4932L155.472 83.4639L160.394 92.7949V93H155.691ZM167.659 71.6719V93H163.279V71.6719H167.659ZM189.295 81.8379V82.8486C189.295 84.4697 189.075 85.9248 188.636 87.2139C188.196 88.5029 187.576 89.6016 186.775 90.5098C185.975 91.4082 185.018 92.0967 183.904 92.5752C182.801 93.0537 181.575 93.293 180.228 93.293C178.89 93.293 177.664 93.0537 176.551 92.5752C175.447 92.0967 174.49 91.4082 173.68 90.5098C172.869 89.6016 172.239 88.5029 171.79 87.2139C171.351 85.9248 171.131 84.4697 171.131 82.8486V81.8379C171.131 80.207 171.351 78.752 171.79 77.4727C172.229 76.1836 172.85 75.085 173.65 74.1768C174.461 73.2686 175.418 72.5752 176.521 72.0967C177.635 71.6182 178.86 71.3789 180.198 71.3789C181.546 71.3789 182.771 71.6182 183.875 72.0967C184.988 72.5752 185.945 73.2686 186.746 74.1768C187.557 75.085 188.182 76.1836 188.621 77.4727C189.07 78.752 189.295 80.207 189.295 81.8379ZM184.856 82.8486V81.8086C184.856 80.6758 184.754 79.6797 184.549 78.8203C184.344 77.9609 184.041 77.2383 183.641 76.6523C183.24 76.0664 182.752 75.627 182.176 75.334C181.6 75.0312 180.94 74.8799 180.198 74.8799C179.456 74.8799 178.797 75.0312 178.221 75.334C177.654 75.627 177.171 76.0664 176.771 76.6523C176.38 77.2383 176.082 77.9609 175.877 78.8203C175.672 79.6797 175.569 80.6758 175.569 81.8086V82.8486C175.569 83.9717 175.672 84.9678 175.877 85.8369C176.082 86.6963 176.385 87.4238 176.785 88.0195C177.186 88.6055 177.674 89.0498 178.25 89.3525C178.826 89.6553 179.485 89.8066 180.228 89.8066C180.97 89.8066 181.629 89.6553 182.205 89.3525C182.781 89.0498 183.265 88.6055 183.655 88.0195C184.046 87.4238 184.344 86.6963 184.549 85.8369C184.754 84.9678 184.856 83.9717 184.856 82.8486Z" fill="url(#paint0_linear_122_251)"/>
<defs>
<linearGradient id="paint0_linear_122_251" x1="99.5" y1="64" x2="99.5" y2="102" gradientUnits="userSpaceOnUse">
<stop stop-color="white"/>
<stop offset="1" stop-color="#D9D9D9" stop-opacity="0.8"/>
</linearGradient>
</defs>
</svg>
