<svg width="51" height="51" viewBox="0 0 51 51" fill="none" xmlns="http://www.w3.org/2000/svg">
<g clip-path="url(#clip0_423_164)">
<path d="M0.5 25.9091C0.5 28.9671 1.0501 31.8964 2.05498 34.6047L25.5 35.6917L48.945 34.6048C49.95 31.8964 50.5 28.9671 50.5 25.9091C50.5 22.8511 49.95 19.9218 48.945 17.2135L25.5 16.1265L2.05498 17.2134C1.0501 19.9218 0.5 22.8511 0.5 25.9091H0.5Z" fill="#FFDA44"/>
<path d="M25.5 0.909058C14.7508 0.909058 5.58726 7.69343 2.05493 17.2135H48.9451C45.4126 7.69343 36.2491 0.909058 25.5 0.909058V0.909058Z" fill="#D80027"/>
<path d="M48.945 34.6047H2.05493C5.58726 44.1246 14.7508 50.9091 25.5 50.9091C36.2491 50.9091 45.4126 44.1246 48.945 34.6047Z" fill="#496E2D"/>
<path d="M25.4998 17.2134L27.658 23.856H34.6431L28.9925 27.9618L31.1507 34.6047L25.4998 30.4992L19.8489 34.6047L22.0075 27.9618L16.3568 23.856H23.3416L25.4998 17.2134Z" fill="black"/>
</g>
<defs>
<clipPath id="clip0_423_164">
<rect width="50" height="50" fill="white" transform="translate(0.5 0.909058)"/>
</clipPath>
</defs>
</svg>
